<?xml version="1.0" encoding="UTF-8" standalone="no"?>
<!-- Uploaded to: SVG Repo, www.svgrepo.com, Generator: SVG Repo Mixer Tools -->

<svg
   fill="#000000"
   height="598.59906"
   width="652.83636"
   version="1.1"
   id="Layer_1"
   viewBox="0 0 417.81527 383.1034"
   xml:space="preserve"
   sodipodi:docname="Comet.svg"
   inkscape:version="1.3.2 (091e20e, 2023-11-25, custom)"
   xmlns:inkscape="http://www.inkscape.org/namespaces/inkscape"
   xmlns:sodipodi="http://sodipodi.sourceforge.net/DTD/sodipodi-0.dtd"
   xmlns="http://www.w3.org/2000/svg"
   xmlns:svg="http://www.w3.org/2000/svg"><defs
   id="defs2" /><sodipodi:namedview
   id="namedview2"
   pagecolor="#ffffff"
   bordercolor="#666666"
   borderopacity="1.0"
   inkscape:showpageshadow="2"
   inkscape:pageopacity="0.0"
   inkscape:pagecheckerboard="0"
   inkscape:deskcolor="#d1d1d1"
   inkscape:zoom="1.02875"
   inkscape:cx="346.05103"
   inkscape:cy="289.18591"
   inkscape:window-width="1920"
   inkscape:window-height="1009"
   inkscape:window-x="1912"
   inkscape:window-y="-8"
   inkscape:window-maximized="1"
   inkscape:current-layer="Layer_1" />
<g
   id="g2"
   transform="rotate(-39.775761,140.49335,268.83197)">
	<g
   id="g1">
		<path
   d="m 512,256 c 0,0 -56.996,-71.414 -124.612,-71.414 9.967,-26.26 14.478,-47.963 14.478,-47.963 0,0 -66.221,-27.112 -140.533,5.109 -30.561,12.244 -61.006,28.692 -88.148,45.285 C 154.961,166.991 128.701,154.401 99.555,154.401 44.661,154.4 0,199.06 0,253.956 c 0,54.896 44.661,99.556 99.556,99.556 27.867,0 53.082,-11.524 71.171,-30.039 27.758,17.102 59.119,34.179 90.607,46.795 74.311,32.22 140.533,5.11 140.533,5.11 0,0 -4.511,-21.703 -14.478,-47.964 C 455.004,327.414 512,256 512,256 Z M 99.556,310.845 c -31.42,0 -56.889,-25.469 -56.889,-56.889 0,-31.418 25.469,-56.889 56.889,-56.889 31.42,0 56.889,25.471 56.889,56.889 -0.001,31.418 -25.47,56.889 -56.889,56.889 z"
   id="path1" />
	</g>
</g>
</svg>
