<?xml version="1.0" encoding="UTF-8" standalone="no"?>
<svg
   viewBox="0 0 482.78287 451.14722"
   x="0px"
   y="0px"
   version="1.1"
   id="svg3"
   sodipodi:docname="Fates.svg"
   width="482.78287"
   height="451.14722"
   inkscape:version="1.3.2 (091e20e, 2023-11-25, custom)"
   xmlns:inkscape="http://www.inkscape.org/namespaces/inkscape"
   xmlns:sodipodi="http://sodipodi.sourceforge.net/DTD/sodipodi-0.dtd"
   xmlns="http://www.w3.org/2000/svg"
   xmlns:svg="http://www.w3.org/2000/svg">
  <defs
     id="defs3" />
  <sodipodi:namedview
     id="namedview3"
     pagecolor="#ffffff"
     bordercolor="#666666"
     borderopacity="1.0"
     inkscape:showpageshadow="2"
     inkscape:pageopacity="0.0"
     inkscape:pagecheckerboard="0"
     inkscape:deskcolor="#d1d1d1"
     inkscape:zoom="1.3168"
     inkscape:cx="241.87424"
     inkscape:cy="288.19866"
     inkscape:window-width="1920"
     inkscape:window-height="1009"
     inkscape:window-x="1912"
     inkscape:window-y="-8"
     inkscape:window-maximized="1"
     inkscape:current-layer="svg3" />
  <path
     d="m 256.68491,428.09697 c 0.092,5.379 8.094,5.378 8.185,0 -0.097,-5.38 -8.099,-5.379 -8.185,0 z"
     id="path1" />
  <path
     d="m 19.31191,422.19997 c 3.955,3.682 37.586,-47.567 47.522,-95.166 a 10.885,10.885 0 0 1 2.094,8.1 l -2.293,16.216 c -1.309,7.614 6.34,14.612 13.788,12.672 l 3.3,-0.754 a 13.062,13.062 0 0 0 10.117,-12.968 c -0.181,-3.433 -0.142,-20.762 -0.868,-23.813 11.941,5 29.819,8.331 42.785,7.511 a 23.128,23.128 0 0 0 -1.035,2.742 c -0.375,1.461 -1.658,2.346 -2.887,3.1 a 11.606,11.606 0 0 0 -4.8,9.318 c -0.055,0.012 0.023,56.859 -0.008,56.895 0.128,14.793 5.277,45.8 24.166,45.082 a 16.488,16.488 0 0 0 14.4,-8.868 c 5.974,-11.263 11.979,-28.734 12.9,-54.119 13.184,29.446 35.834,46.352 64.058,46.766 a 3.7502187,3.7502187 0 0 0 0.081,-7.5 c -23.505,-0.517 -41.73,-12.668 -54.239,-36.13 37.633,32.475 83.949,22.417 111.614,-20.5 q -0.141,1.509 -0.265,3.043 c -6.687,22.026 -16.927,34.706 -25.8,41.931 a 3.751,3.751 0 0 0 4.736,5.817 c 6.681,-5.44 14.069,-13.661 20.388,-25.96 0.315,15.355 3.533,53.954 22.6,53.4 a 14.428,14.428 0 0 0 13.674,-9.475 c 7.935,-21.342 17.621,-58.844 14.945,-107.5 6.268,2.032 20.155,4.413 40.459,-3.764 -0.469,5.4 -0.478,19.112 -0.628,22.019 0.039,8.151 5.8,12.648 13.419,13.722 7.447,1.937 15.1,-5.055 13.789,-12.672 l -2.294,-16.221 a 10.92,10.92 0 0 1 2.907,-9.07 c 11.217,47.709 40.774,94.174 44.529,96.224 a 3.752,3.752 0 0 0 4.192,-1.751 c 44.631,-125.985 -17.738,-153.148 -15.933,-243.43 -0.006,-12.32 -4.672,-21.29 -14.675,-25.256 38.054,-30.45 5.6,-82.664997 -22.169,-103.678997 a 16.249,16.249 0 0 0 -19.417,-1.4 99.01,99.01 0 0 0 -32.492,34.531 c -28.312,-60.075 -65.12,-75.9000002 -66.723,-76.5660002 a 82.075,82.075 0 0 0 -20.141,-4.61599998 c -8.089,-0.866 -15.725,4.04999998 -17.757,11.44700018 -3.6,10.1 6.665,20.361 16.907,17.921 a 33.948,33.948 0 0 1 9.789,-0.785 c 0.058,11.459 -1.4,51.2 -23.822,62.305 -3.538,1.674 -2.185,7.2 1.667,7.112 16.851,-6.128 24.077,-26.088 27.313,-42.4 4.271,18.494 10.733,46.753997 25.18,73.260997 v 0 c 35.627,22.257 47.875,39.912 50.954,45.15 -3.22,6.293 -10.23,10.322 -13.749,17 -8.3,14.793 1.03,29.4 15.129,30.972 l 2.678,19.034 c -14.739,18.259 -22.073,28.393 -32.485,51.007 -10.713,-17.913 -35.349,-29.609 -46.187,-50.52 -3.286,-6.258 -5.572,-14.115 -12.743,-16.642 a 23.5,23.5 0 0 0 9.567,-16.095 c 2.246,-18.062 3.938,-62.658 -28.785,-86.6 -28.569,-18.755 -52.058,4.487 -61.357,32.874 a 217.839,217.839 0 0 1 -11.864,27.051 c -0.971,1.843 -12.989,25.93 9.1,45.215 -24,2.239 -28.68,55.02 -43.08,81.94 a 109.594,109.594 0 0 0 -4.049,-16.782 224.844,224.844 0 0 0 -32.958,-51.446 l 2.678,-19.034 c 14.117,-1.592 23.418,-16.168 15.128,-30.972 -3.514,-6.678 -10.529,-10.713 -13.746,-17 3.094,-5.264 15.348,-22.91 50.952,-45.152 a 3.939,3.939 0 0 0 1.419,-1.609 c 5.785,-12.54 15.378,-50.710997 21.758,-75.876997 2.512,27.275 20.971,59.558997 53.148,46.138 16.277,-9.8 21.018,-28.882 23.706,-57.022 0.258,-4.9 -7.042,-5.459 -7.482,-0.529 -1.188,16.826 -5.38,43.473 -19.781,50.941 a 5.5,5.5 0 0 1 -4.639,-0.363 c -20.993,-12.043 -20.649,-52.232 -20.269,-61.62 17.738,-6.552 9.32,-30.9280002 -8.575,-28.91300018 a 82.128,82.128 0 0 0 -20.139,4.61599998 c -1.6,0.663 -38.412,16.4880002 -66.724,76.5650002 a 99,99 0 0 0 -32.497,-34.527 v 0 a 16.255,16.255 0 0 0 -19.42,1.4 c -9.022,7.816 -25.375,23.539 -33.527,41.034 -10.127,21.983997 -7.535,48.255997 11.361,62.645997 -10,3.951 -14.669,12.958 -14.675,25.256 4.612,89.775 -66.147,121.904 -13.92,245.092 z m 392.918,-101.028 a 18.375,18.375 0 0 0 -4.638,15.007 l 2.293,16.221 a 3.889,3.889 0 0 1 -4.694,4.31 c -3.788,-0.689 -7.525,-1.6 -7.59,-6.248 l 0.417,-19.247 a 23.487,23.487 0 0 1 3.484,-11.806 l 16.972,-27.537 a 112.02,112.02 0 0 1 10.858,10.565 z m -13.781,-268.056997 a 8.8,8.8 0 0 1 10.511,0.72 c 11.762,9.8 26.393,25.325 33.15,42.778 2.127,9.921997 5.231,39.836997 -32.529,46.205997 3.429,-5.871 6.02,-9.856 6.189,-10.437 4.453,-7.4 5.413,-15.853 5.513,-23.4 0.293,-18.238997 -17.719,-38.752997 -35.576,-23.452997 v 0 c -10.693,9.012 -13.684,33.817997 -8.072,46.110997 0.947,3.107 1.814,6.365 2.6,9.65 -5.235,-1.438 -17.025,-8.589 -19.546,-24.616 -1.89,-23.012997 12.675,-45.830997 37.76,-63.558997 z m 9.551,62.757997 -4.177,0.97 c -4.821,1.034 -6.478,-6.11 -1.7,-7.306 l 4.178,-0.97 c 4.823,-1.034 6.484,6.105 1.699,7.305 z m -19.769,0.9 -4.221,-0.758 c -4.838,-0.953 -3.54,-8.171 1.325,-7.382 l 4.221,0.758 c 4.838,0.955 3.54,8.173 -1.325,7.381 z m -115.146,-94.700997 c -13,1.745 -10.845,-15.7000002 1.2,-14.4930002 a 79.989,79.989 0 0 1 16.907,3.6690002 q 3.4,6.16 6.16,12.449 c -7.767,-2.096 -15.867,-3.625 -24.267,-1.625 z m 85.033,172.737997 c 3.63,-6.241 10.284,-10.268 13.335,-16.309 0.977,-1.586 2.649,-3.794 1.632,-5.74 -0.376,-0.877 -9.578,-21.48 -52.739,-48.889 1.1,-11.34 4.136,-59.558997 -17.273,-105.783997 13.248,9.376 36.28,30.414 54.621,71.947 -7.6,19.618997 -7.337,44.799997 12.051,63.810997 15.589,14.95 16,22.977 16.878,24.923 a 3.781,3.781 0 0 0 5.1,1.65 65.3,65.3 0 0 1 11.465,-11.451 l 0.528,-0.148 a 60.15,60.15 0 0 1 22.151,-11.225 c 9.955,-0.413 17.682,6.308 17.338,19.51 -1.9,44.653 13.833,73 23.819,107.616 3.317,46.443 -18.6,31.439 -18.6,31.439 v 0 a 110.786,110.786 0 0 0 -25.813,-30.606 c 13.63,-20 19.26,-42.044 11.351,-72.943 9.968,-16.7 -3.607,-32.8 -4.214,-32.543 -3.581,-3.3 -8.645,2.093 -5.129,5.472 0.378,0.361 9.118,8.933 3.527,22.309 -3.987,5.752 -9.05,13.755 -25.662,7.09 -11.272,-5.474 -20.334,0.294 -32.47,-0.08 -7.429,0.231 -18.892,-6.57 -11.893,-20.052 z m -157.94,154.907 a 138.542,138.542 0 0 1 3.66,-48.356 c 1.661,2.726 5.865,4.538 7.5,7.3 a 44.922,44.922 0 0 1 6.392,16.934 143.34,143.34 0 0 0 -17.552,24.122 z m 84.67,0 a 143.325,143.325 0 0 0 -17.555,-24.124 c 1.678,-9.135 4.936,-16.863 10.065,-20.51 a 16.672,16.672 0 0 0 3.83,-3.722 138.591,138.591 0 0 1 3.66,48.356 z m 50.6,-33.473 a 11.918,11.918 0 0 0 5.357,6.779 c 2.277,1.189 2.781,4.935 0.626,6.418 l -16.955,12.023 c -2.746,1.758 -4.87,-2.632 -5.347,-4.591 l 9.569,-6.758 a 3.7500268,3.7500268 0 0 0 -4.327,-6.126 l -9.81,6.928 a 8.728,8.728 0 0 1 -3.7,-5.246 l 9.514,-5.654 a 3.75,3.75 0 0 0 -3.828,-6.445 l -9.466,5.626 c -1.452,-1.918 -2.854,-5.09 -1.012,-7.343 l 16.662,-10.457 c 1.8,-1.037 4.011,1.206 4.429,2.768 a 12.03,12.03 0 0 0 5.1,6.928 c 1.287,0.811 2.425,2.641 3.189,5.15 z m -143.311,-130.472 c 9.994,-17.436 14.265,-41.08 27.549,-54.483 a 26.4,26.4 0 0 1 34.645,-2.953 c 29.512,21.6 27.854,62.877 25.771,79.624 -1.032,9.933 -11.941,13.9 -17.882,20.586 a 146.166,146.166 0 0 0 1.5,-25.783 c 0.084,-18.018 1.819,-32.94 -14.081,-45.3 v 0 a 13.841,13.841 0 0 0 -17.769,1.349 c -14.6,13.812 -18,24.842 -16.383,45.391 0.54,8.285 0.018,20.969 9.121,34.853 a 166.874,166.874 0 0 0 -17.568,-11.933 c -28.099,-16.696 -15.449,-40.366 -14.903,-41.351 z m 60.335,12.48 a 34.406,34.406 0 0 1 -4.387,1.02 c -4.28,0.054 -5.156,-6.311 -0.952,-7.377 l 3.431,-0.9 c 4.788,-1.178 6.653,5.919 1.908,7.253 z m -15.736,-1.81 c -1.307,4.166 -5.127,2.6 -8.158,1.827 -4.763,-1.279 -2.982,-8.385 1.818,-7.277 3.089,0.764 7.117,1.121 6.34,5.446 z m -63.451,75.361 c 7.987,-30.558 18.487,-35.894 19.22,-36.231 a 31.556,31.556 0 0 1 12.506,-0.91 c 28.6,17.443 36.165,33.019 36.231,33.159 a 3.743,3.743 0 0 0 4.24,2.08 4.438,4.438 0 0 0 3.314,-4.137 c 0,-0.061 -0.042,-6.2 5.476,-15.583 3.656,-6.381 8.256,-11.786 16.084,-18.938 8.626,-1.123 10.423,8 13.761,13.937 a 86.078,86.078 0 0 0 22.848,26.672 c 14.473,12.407 18.693,15.976 23.643,24.524 -3.19,-2.891 -8.479,-3.8 -11.942,-1.284 -0.759,0.579 -18.19,11.129 -18.171,11.711 l -0.006,-0.02 c -8.266,5.473 -11.616,-5.674 -11.616,-5.674 v 0.016 a 133.658,133.658 0 0 0 -4.4,-14.2 c -1.908,-6.959 -7.3,-11.81 -11.36,-16.49 a 11.539,11.539 0 0 1 -2.688,-6.769 3.75,3.75 0 0 0 -3.933,-3.558 c -7.069,1.049 -2,11.824 0.868,15.139 3.345,3.935 8.424,8.467 9.849,13.54 0.915,10.625 -11.16,18.266 -26.634,12.112 -5.236,-2.126 -11.412,-2.151 -17.864,-0.073 -7.95,3.03 -26.43,1.624 -24.9,-12.027 1.345,-5.343 4.835,-10.312 7.546,-13.552 2.849,-3.318 7.957,-14.071 0.869,-15.139 a 3.728,3.728 0 0 0 -3.933,3.558 11.374,11.374 0 0 1 -2.688,6.768 c -7.19,8.076 -11.614,20.522 -14.206,33.633 -7.446,33.733 -23.372,24.47 -23.373,24.469 l -13.565,-9.62 v 0 a 9.524,9.524 0 0 0 -2.479,-1.247 c 5.895,-12.49 12.975,-29.297 17.303,-45.866 z m -31.392,67.132 c 0.768,-2.509 1.9,-4.339 3.192,-5.152 a 12.007,12.007 0 0 0 5.085,-6.887 c 0.4,-1.638 2.38,-2.894 3.95,-1.865 l 15.677,11.117 c 2.365,2.066 1.574,4.7 -0.14,6.371 l -10.172,-7.274 a 3.75,3.75 0 0 0 -4.361,6.1 l 11.07,7.911 a 8.421,8.421 0 0 1 -3.405,4.348 l -10.437,-7.4 a 3.75,3.75 0 1 0 -4.338,6.118 l 10.2,7.236 c -0.477,1.96 -2.6,6.356 -5.349,4.6 l -16.955,-12.024 c -2.024,-1.383 -1.722,-4.888 0.3,-6.2 a 12.167,12.167 0 0 0 5.686,-6.999 z m -59.84,17.021 c -2.033,0.385 -5.09,1.694 -6.784,-0.171 a 3.815,3.815 0 0 1 -1.212,-3.385 l 2.293,-16.22 a 18.372,18.372 0 0 0 -4.635,-15.008 l -17.074,-18.7 a 110.117,110.117 0 0 1 10.832,-10.6 l 16.97,27.534 a 23.494,23.494 0 0 1 3.485,11.806 l 0.416,19.247 a 5.534,5.534 0 0 1 -4.288,5.497 z m 145.676,-263.426997 c -27.982,-3.683 -29.322,-53.071 -28.194,-63.792 a 34.4,34.4 0 0 1 10.351,0.781 c -0.401,10.672 -0.276,46.073 17.843,63.011 z m -34.982,-81.285 a 80.075,80.075 0 0 1 16.906,-3.6720002 c 12.1,-1.159 14.186,16.2140002 1.2,14.4920002 -8.4,-1.992 -16.5,-0.468 -24.27,1.628 q 2.768,-6.27 6.164,-12.448 z m -149.562,82.174 c 7.235,-16.181 20.817,-30.483 31.8,-39.583 a 8.8,8.8 0 0 1 10.51,-0.719 v 0 c 34.282,21.311 55.909,74.448997 18.171,88.355997 0.8,-3.345 1.679,-6.664 2.644,-9.828 5.61,-12.3 2.621,-37.087997 -8.073,-46.109997 v 0 c -17.862,-15.3 -35.876,5.234 -35.575,23.452997 0.1,7.542 1.059,16 5.512,23.4 0.166,0.58 2.819,4.653 6.312,10.644 -46.601,-7.059 -31.517,-49.019997 -31.301,-49.612997 z m 55.918,23.506997 -4.178,0.97 c -4.82,1.034 -6.478,-6.11 -1.7,-7.305 l 4.177,-0.97 c 4.825,-1.034 6.483,6.11 1.701,7.305 z m -19.628,0.9 -4.221,-0.759 c -4.837,-0.953 -3.54,-8.171 1.326,-7.381 l 4.221,0.758 c 4.837,0.956 3.539,8.174 -1.326,7.385 z m -50.578,133.787 c 10.922,-28.062 11.836,-52.2 11.836,-74.51 -0.374,-13.15 7.423,-19.957 17.339,-19.51 13.141,3.8 25.377,11.063 33.366,22.268 a 3.762,3.762 0 0 0 6.093,-1.638 c 0.235,-0.662 1.693,-10.3 16.665,-24.379 19.4,-19.034 19.642,-44.166 12.052,-63.811997 18.341,-41.537 41.376,-62.574 54.621,-71.947 -21.408,46.224 -18.37,94.444997 -17.274,105.784997 -43.9,28.906 -54.663,47.816 -52.508,52.3 a 48.946,48.946 0 0 0 10.298,12.938 c 12.6,12.029 5.323,25.908 -7.454,25.753 a 59.132,59.132 0 0 1 -14.275,-1.542 28.007,28.007 0 0 0 -18.2,1.622 c -21.618,9.076 -33.63,-8.451 -22.082,-32.33 a 3.75,3.75 0 1 0 -6.711,-3.348 c -8.506,17.046 -4.526,29.019 -2.624,33.08 -7.982,31.028 -2.394,53.149 11.286,73.209 -11.227,9 -20.617,20.878 -27.933,34.38 v -0.014 c -28.3350002,12.055 -16.114,-37.708 -15.727,-39.257 3.472,-9.926 7.454,-19.339 11.232,-29.048 z"
     id="path2" />
</svg>
