<?xml version="1.0" encoding="UTF-8" standalone="no"?>
<svg
   viewBox="0 0 64 80"
   x="0px"
   y="0px"
   version="1.1"
   id="svg2"
   sodipodi:docname="Fool.svg"
   inkscape:version="1.3.2 (091e20e, 2023-11-25, custom)"
   xmlns:inkscape="http://www.inkscape.org/namespaces/inkscape"
   xmlns:sodipodi="http://sodipodi.sourceforge.net/DTD/sodipodi-0.dtd"
   xmlns="http://www.w3.org/2000/svg"
   xmlns:svg="http://www.w3.org/2000/svg">
  <defs
     id="defs2" />
  <sodipodi:namedview
     id="namedview2"
     pagecolor="#ffffff"
     bordercolor="#666666"
     borderopacity="1.0"
     inkscape:showpageshadow="2"
     inkscape:pageopacity="0.0"
     inkscape:pagecheckerboard="0"
     inkscape:deskcolor="#d1d1d1"
     inkscape:zoom="10.2875"
     inkscape:cx="32.029162"
     inkscape:cy="24.447145"
     inkscape:window-width="1920"
     inkscape:window-height="1009"
     inkscape:window-x="1912"
     inkscape:window-y="-8"
     inkscape:window-maximized="1"
     inkscape:current-layer="svg2" />
  <title
     id="title1">jester</title>
  <g
     data-name="Layer 55"
     id="g1">
    <path
       d="M11.5544,10.95717A1.66838,1.66838,0,1,1,9.886,9.2888,1.66967,1.66967,0,0,1,11.5544,10.95717Zm31.20581,5.53752a49.81168,49.81168,0,0,1-21.52042,0,1.22851,1.22851,0,0,0-.27472-.03108,1.28265,1.28265,0,0,0-1.07983,1.93808,1.31379,1.31379,0,0,0,.84421.6086,52.367,52.367,0,0,0,22.5411,0,1.31379,1.31379,0,0,0,.84421-.6086,1.27833,1.27833,0,0,0-1.35455-1.907Zm2.38626,9.20614a.80959.80959,0,0,0-.80812-.80812h-.70284a4.02575,4.02575,0,0,0-.77817.08309l-.89265,1.68429-.64563,3.63115A4.677,4.677,0,0,0,45.14647,25.70083Zm-3.09411-2.49554a10.20679,10.20679,0,0,0,.11292-2.40857c-.69056.13529-1.38432.26137-2.08666.3684A7.17863,7.17863,0,0,0,41.10487,24.993ZM29.64714,56.67115A5.77262,5.77262,0,0,0,23.56426,53.94c.00445.06887.02068.13442.02068.20441a3.20844,3.20844,0,1,1-3.36238-3.19287,5.69524,5.69524,0,0,0-1.53-5.69368,5.978,5.978,0,0,0-1.21262,3.09938L16.00607,58.81164a.181.181,0,0,0,.09926.13034,40.763,40.763,0,0,0,13.689,2.55081,3.16866,3.16866,0,0,1-.1472-4.82164ZM32,37.18694a7.7819,7.7819,0,0,1-7.67211-6.42785l-.74314-4.17977a7.99849,7.99849,0,0,0,1.86664-5.20327A54.11765,54.11765,0,0,0,32,21.78256a54.113,54.113,0,0,0,6.54829-.40645,7.887,7.887,0,0,0,1.86677,5.20434l-.74295,4.17864A7.7819,7.7819,0,0,1,32,37.18694Zm3.99748-5.67488a.77006.77006,0,0,0-1.08083.13837,3.68982,3.68982,0,0,1-5.8333,0,.7705.7705,0,1,0-1.21919.94247,5.23234,5.23234,0,0,0,8.27168,0A.77177.77177,0,0,0,35.99748,31.51206ZM32,38.727a9.35179,9.35179,0,0,1-2.31006-.29371v1.23518A3.19475,3.19475,0,0,1,28.637,42.03083a18.09177,18.09177,0,0,0,6.71673-.00764,3.195,3.195,0,0,1-1.04367-2.35474V38.43327A9.35179,9.35179,0,0,1,32,38.727ZM21.94764,23.20428l.94749,1.78869a7.15186,7.15186,0,0,0,1.02625-3.82785c-.702-.107-1.39553-.233-2.08584-.36821A10.18281,10.18281,0,0,0,21.94764,23.20428ZM45.38378,45.35567a5.71482,5.71482,0,0,0-1.865,5.58571c.01824-.00031.03522-.00539.05358-.00539a3.20841,3.20841,0,1,1-3.20841,3.20841l.00119-.01159a5.73976,5.73976,0,0,0-6.324,2.58728A3.17564,3.17564,0,0,1,33.82591,61.5a41.24551,41.24551,0,0,0,14.06876-2.558.178.178,0,0,0,.09325-.18047L46.52508,48.39934A5.97224,5.97224,0,0,0,45.38378,45.35567ZM44.86874,2.5a4.51979,4.51979,0,0,0-2.60784.82617L38.64743,5.86582a11.58765,11.58765,0,0,1-13.28784.004l-3.6235-2.54367a4.54363,4.54363,0,0,0-6.3306,1.1059L12.29816,8.865a3.20643,3.20643,0,0,1,.30091.39817l1.85493-.606A4.0674,4.0674,0,0,1,19.43205,10.871L21.249,14.95064a2.73075,2.73075,0,0,1,.33369.04211,48.22922,48.22922,0,0,0,20.83462,0,2.74211,2.74211,0,0,1,.33845-.04292L44.56494,10.873A4.05892,4.05892,0,0,1,49.543,8.65714l1.85744.60684a3.21249,3.21249,0,0,1,.30035-.39766L48.5905,4.43106A4.55144,4.55144,0,0,0,44.86874,2.5ZM54.114,9.2888a1.66838,1.66838,0,1,0,1.66837,1.66837A1.66967,1.66967,0,0,0,54.114,9.2888Zm-22.29947,48.064a1.66838,1.66838,0,1,0,1.66838,1.66838A1.66967,1.66967,0,0,0,31.81451,57.35281Zm-10.0793-6.10375a3.21759,3.21759,0,0,1,1.353,1.19877,7.35873,7.35873,0,0,1,7.92966,3.47724,2.87522,2.87522,0,0,1,1.66806.02325,7.31627,7.31627,0,0,1,8.08031-3.32685,3.20943,3.20943,0,0,1,1.2682-1.275,7.26572,7.26572,0,0,1,3.43087-7.95629A4.57163,4.57163,0,0,0,41.544,41.43809H41.3445a3.519,3.519,0,0,0-2.01027.70384c-1.5651,1.08986-4.31632,1.73956-7.35829,1.73956-3.044,0-5.79419-.6507-7.3583-1.73956a3.52142,3.52142,0,0,0-2.01027-.70384h-.20052a4.55614,4.55614,0,0,0-3.7749,1.80273A7.236,7.236,0,0,1,21.73521,51.24906ZM18.85353,25.70083a4.677,4.677,0,0,0,3.82741,4.59041l-.64563-3.63115-.89165-1.68234a3.97718,3.97718,0,0,0-.77917-.085h-.70284A.80959.80959,0,0,0,18.85353,25.70083ZM43.57234,55.81278A1.66838,1.66838,0,1,0,41.904,54.1444,1.66966,1.66966,0,0,0,43.57234,55.81278ZM20.37653,52.476A1.66838,1.66838,0,1,0,22.0449,54.1444,1.66966,1.66966,0,0,0,20.37653,52.476Z"
       id="path1" />
  </g>
</svg>
