<?xml version="1.0" encoding="utf-8"?>

<!DOCTYPE svg PUBLIC "-//W3C//DTD SVG 1.1//EN" "http://www.w3.org/Graphics/SVG/1.1/DTD/svg11.dtd">
<!-- Uploaded to: SVG Repo, www.svgrepo.com, Generator: SVG Repo Mixer Tools -->
<svg height="800px" width="800px" version="1.1" id="_x32_" xmlns="http://www.w3.org/2000/svg" xmlns:xlink="http://www.w3.org/1999/xlink" 
	 viewBox="0 0 512 512"  xml:space="preserve">
<style type="text/css">
	.st0{fill:#000000;}
</style>
<g>
	<polygon class="st0" points="424.853,91.195 266.896,0 266.896,96.85 340.979,139.606 	"/>
	<polygon class="st0" points="245.085,96.85 245.085,0 87.147,91.195 171.011,139.606 	"/>
	<polygon class="st0" points="160.11,158.513 76.247,110.092 76.247,401.918 160.11,353.488 	"/>
	<polygon class="st0" points="87.147,420.805 245.085,512 245.085,415.15 171.02,372.375 	"/>
	<polygon class="st0" points="266.896,415.158 266.896,512 424.844,420.805 340.971,372.375 	"/>
	<polygon class="st0" points="351.881,158.513 351.881,353.488 435.753,401.918 435.753,110.082 	"/>
	<path class="st0" d="M330.07,158.503l-74.075-42.766l-74.074,42.775v194.976l74.074,42.774l74.075-42.774V158.503z
		 M207.348,260.016V187.89l55.496-33.294L207.348,260.016z"/>
</g>
</svg>