<?xml version="1.0" encoding="UTF-8" standalone="no"?>
<!-- Uploaded to: SVG Repo, www.svgrepo.com, Generator: SVG Repo Mixer Tools -->

<svg
   width="800px"
   height="800px"
   viewBox="0 0 512 512"
   version="1.1"
   id="svg1"
   sodipodi:docname="Idiot.svg"
   inkscape:version="1.3.2 (091e20e, 2023-11-25, custom)"
   xmlns:inkscape="http://www.inkscape.org/namespaces/inkscape"
   xmlns:sodipodi="http://sodipodi.sourceforge.net/DTD/sodipodi-0.dtd"
   xmlns="http://www.w3.org/2000/svg"
   xmlns:svg="http://www.w3.org/2000/svg">
  <defs
     id="defs1" />
  <sodipodi:namedview
     id="namedview1"
     pagecolor="#ffffff"
     bordercolor="#666666"
     borderopacity="1.0"
     inkscape:showpageshadow="2"
     inkscape:pageopacity="0.0"
     inkscape:pagecheckerboard="0"
     inkscape:deskcolor="#d1d1d1"
     inkscape:zoom="0.36371805"
     inkscape:cx="1178.1103"
     inkscape:cy="922.41779"
     inkscape:window-width="1920"
     inkscape:window-height="1009"
     inkscape:window-x="1912"
     inkscape:window-y="-8"
     inkscape:window-maximized="1"
     inkscape:current-layer="svg1" />
  <path
     fill="#000000"
     d="m 330.445,26.006 -126.79,211.61 c 24.586,20.357 46.073,33.117 68.584,38.63 22.632,5.543 47.123,4.26 78.421,-4.044 z M 189.119,249.81 C 163.03,273.734 146,311.377 146,354.309 c 0,73.606 50.048,131.685 110,131.685 59.952,0 110,-58.08 110,-131.685 0,-23.104 -4.932,-44.677 -13.553,-63.406 -32.014,8.151 -59.115,9.557 -84.609,3.313 -27.08,-6.632 -51.752,-21.655 -78.72,-44.405 z m 46.57383,88.93306 c 8.3951,-2.36255 12.60617,15.18043 6.78417,17.24194 -14.49365,5.13206 -32.28226,10.20455 -49.345,16.448 -5.79153,2.11919 -11.55807,-15.21733 -5.85,-17.552 11.33988,-4.63815 32.03692,-11.53001 48.41083,-16.13794 z M 275.374,338.432 c 16.44092,5.6217 35.99235,11.82819 49.345,16.449 5.82807,2.01686 0.0842,19.2274 -5.851,17.552 -15.50765,-4.37751 -33.81472,-10.89425 -49.345,-16.448 -5.80733,-2.07675 0.0152,-19.54844 5.851,-17.553 z M 256,411.977 c 19.532,0 38.348,9.842 55.886,27.38 0,0 -0.29826,7.76398 -2.80881,10.27469 C 306.56671,452.1423 298.803,452.441 298.803,452.441 283.445,437.083 269.365,430.477 256,430.477 c -13.365,0 -27.445,6.606 -42.803,21.964 0,0 -8.03104,-0.20068 -10.58524,-2.80881 C 200.14574,447.11411 200.114,439.358 200.114,439.358 217.652,421.819 236.468,411.977 256,411.977 Z"
     id="path1"
     sodipodi:nodetypes="ccccccsssccccssssssssssscscscscs" />
</svg>
