<?xml version="1.0" encoding="UTF-8" standalone="no"?>
<svg
   version="1.1"
   x="0px"
   y="0px"
   viewBox="0 0 427.882 487.99955"
   xml:space="preserve"
   id="svg26"
   sodipodi:docname="Jester.svg"
   width="427.88199"
   height="487.99957"
   inkscape:version="1.3.2 (091e20e, 2023-11-25, custom)"
   xmlns:inkscape="http://www.inkscape.org/namespaces/inkscape"
   xmlns:sodipodi="http://sodipodi.sourceforge.net/DTD/sodipodi-0.dtd"
   xmlns="http://www.w3.org/2000/svg"
   xmlns:svg="http://www.w3.org/2000/svg"><defs
     id="defs26" /><sodipodi:namedview
     id="namedview26"
     pagecolor="#ffffff"
     bordercolor="#666666"
     borderopacity="1.0"
     inkscape:showpageshadow="2"
     inkscape:pageopacity="0.0"
     inkscape:pagecheckerboard="0"
     inkscape:deskcolor="#d1d1d1"
     inkscape:zoom="1.349183"
     inkscape:cx="213.83311"
     inkscape:cy="304.99939"
     inkscape:window-width="1920"
     inkscape:window-height="1009"
     inkscape:window-x="1912"
     inkscape:window-y="-8"
     inkscape:window-maximized="1"
     inkscape:current-layer="svg26" /><g
     id="g25"
     transform="translate(0,-3.373761e-4)"><path
       d="m 133.985,109.864 c 0,4.021 3.271,7.292 7.292,7.292 4.021,0 7.292,-3.271 7.292,-7.292 0,-4.021 -3.271,-7.291 -7.292,-7.291 -4.021,0 -7.292,3.271 -7.292,7.291 z"
       id="path1" /><circle
       cx="45.511002"
       cy="192.592"
       r="7.2919998"
       id="circle1" /><path
       d="M 187.21,11.369 C 182.595,5.293 177.043,1.37 170.364,0.365 c -1.612,-0.243 -3.177,-0.364 -4.691,-0.364 -7.961,0 -14.558,3.35 -19.656,9.997 -11.697,15.251 -13.774,45.849 -6.001,73.169 7.651,-34.658 23.183,-58.264 47.194,-71.798 z"
       id="path2" /><path
       d="m 126.313,146.817 c 5.853,-5.279 12.281,-9.386 19.19,-11.344 3.427,-0.973 6.933,-1.466 10.418,-1.466 7.86,0 14.891,2.379 21.327,5.831 -3.901,-20.487 -10.997,-51.106 -22.322,-78.198 -3.989,9.837 -7.012,21.028 -9.087,33.629 6.21,1.945 10.729,7.752 10.729,14.595 0,8.432 -6.86,15.292 -15.292,15.292 -8.432,0 -15.292,-6.86 -15.292,-15.292 0,-6.482 4.062,-12.022 9.768,-14.243 -9.431,-24.428 -10.846,-52.71 -4.491,-73.406 -4.845,-4.941 -9.789,-8.238 -14.749,-9.804 -12.143,18.369 -20.244,36.543 -24.385,54.793 15.705,16.574 25.028,45.718 34.186,79.613 z"
       id="path3" /><path
       d="m 76.73,159.657 c 6.804,10.472 12.723,21.988 17.689,34.311 4.966,-10.782 13.748,-27.538 25.378,-40.568 -8.446,-31.643 -16.736,-59.34 -29.563,-76.074 -1.788,12.209 -1.813,24.474 -0.097,36.876 6.741,1.594 11.777,7.647 11.777,14.868 0,8.432 -6.86,15.292 -15.292,15.292 -8.432,0 -15.292,-6.86 -15.292,-15.292 0,-5.996 3.478,-11.183 8.515,-13.687 -4.259,-6.002 -11.323,-16.918 -16.447,-29.64 -7.889,11.59 -13.058,25.06 -15.484,40.33 10.725,9.391 20.42,20.663 28.816,33.584 z"
       id="path4" /><path
       d="m 79.333,129.07 c 0,4.021 3.271,7.292 7.292,7.292 4.021,0 7.292,-3.271 7.292,-7.292 0,-4.019 -3.269,-7.289 -7.287,-7.291 -10e-4,0 -0.002,0 -0.003,0 -10e-4,0 -0.002,0 -0.003,0 -4.022,0.001 -7.291,3.271 -7.291,7.291 z"
       id="path5" /><path
       d="m 39.293,165.973 c -3.786,-36.519 3.219,-66.534 20.886,-89.42 -1.468,-4.979 -2.501,-10.106 -2.88,-15.226 -10.372,0.857 -18.941,5.239 -25.5,13.079 -9.954,11.899 -14.095,30.68 -10.807,49.015 2.954,16.47 11.5,32.131 18.301,42.552 z"
       id="path6" /><path
       d="m 107.938,10.925 c -1.191,-0.092 -2.365,-0.138 -3.523,-0.138 -8.88,0 -16.781,2.691 -23.203,7.966 -10.073,8.274 -16.086,22.633 -16.086,38.408 0,16.332 8.814,33.926 15.894,45.424 -1.495,-30.938 7.382,-61.114 26.918,-91.66 z"
       id="path7" /><path
       d="m 292.128,95.622 c 5.706,2.221 9.768,7.76 9.768,14.243 0,8.432 -6.86,15.292 -15.292,15.292 -8.432,0 -15.292,-6.86 -15.292,-15.292 0,-6.843 4.519,-12.65 10.729,-14.595 -2.075,-12.601 -5.098,-23.792 -9.087,-33.629 -11.326,27.092 -18.422,57.712 -22.322,78.199 6.437,-3.453 13.469,-5.832 21.329,-5.832 3.485,0 6.99,0.493 10.417,1.465 6.909,1.958 13.336,6.065 19.189,11.344 9.158,-33.894 18.481,-63.038 34.187,-79.612 -4.141,-18.251 -12.242,-36.425 -24.386,-54.793 -4.96,1.566 -9.904,4.863 -14.749,9.804 6.356,20.696 4.941,48.978 -4.491,73.406 z"
       id="path8" /><path
       d="m 346.863,102.586 c 7.08,-11.498 15.894,-29.092 15.894,-45.424 0,-15.775 -6.014,-30.134 -16.086,-38.408 -7.258,-5.963 -16.403,-8.625 -26.726,-7.829 19.535,30.546 28.411,60.722 26.918,91.661 z"
       id="path9" /><path
       d="m 286.605,117.156 c 4.021,0 7.292,-3.271 7.292,-7.292 0,-4.021 -3.271,-7.291 -7.292,-7.291 -4.021,0 -7.292,3.271 -7.292,7.291 0,4.02 3.271,7.292 7.292,7.292 z"
       id="path10" /><path
       d="m 287.867,83.167 c 7.773,-27.32 5.696,-57.918 -6.001,-73.169 -6.068,-7.912 -14.257,-11.154 -24.347,-9.633 -6.679,1.006 -12.231,4.929 -16.846,11.004 24.01,13.534 39.542,37.14 47.194,71.798 z"
       id="path11" /><path
       d="m 159.415,51.919 c 14.831,32.658 23.2,71.953 27.027,93.712 3.224,2.297 6.306,4.72 9.28,7.062 4.587,3.612 9.994,7.863 14.219,9.861 -0.02,-41.116 -0.62,-111.472 -18.424,-144.425 -13.577,7.572 -24.232,18.769 -32.102,33.79 z"
       id="path12" /><path
       d="m 333.966,129.07 c 0,4.021 3.271,7.292 7.292,7.292 4.021,0 7.292,-3.271 7.292,-7.292 0,-4.02 -3.27,-7.29 -7.289,-7.291 -0.001,0 -0.002,0 -0.003,0 -10e-4,0 -0.002,0 -0.003,0 -4.02,0.002 -7.289,3.272 -7.289,7.291 z"
       id="path13" /><path
       d="m 241.44,145.631 c 3.827,-21.759 12.196,-61.054 27.027,-93.712 -7.87,-15.02 -18.525,-26.217 -32.101,-33.79 -17.804,32.953 -18.404,103.309 -18.424,144.426 4.222,-1.996 9.621,-6.242 14.201,-9.848 2.979,-2.347 6.067,-4.776 9.297,-7.076 z"
       id="path14" /><path
       d="m 155.921,142.007 c -2.747,0 -5.518,0.391 -8.235,1.162 -21.995,6.235 -41.645,42.487 -49.788,62.924 -1.015,2.549 0.235,5.451 2.787,6.467 0.589,0.234 1.208,0.354 1.838,0.354 2.051,0 3.868,-1.23 4.626,-3.135 5.6,-14.04 24.284,-51.651 43.25,-57.029 1.78,-0.505 3.542,-0.75 5.387,-0.75 10.022,0 19.587,7.529 28.837,14.811 9.703,7.639 18.863,14.852 29.317,14.852 10.454,0 19.617,-7.214 29.318,-14.852 9.25,-7.282 18.813,-14.811 28.835,-14.811 1.845,0 3.607,0.245 5.387,0.749 18.968,5.378 37.652,42.99 43.251,57.029 0.76,1.905 2.576,3.136 4.627,3.136 0.63,0 1.25,-0.12 1.844,-0.356 2.547,-1.015 3.796,-3.917 2.78,-6.467 -8.143,-20.436 -27.792,-56.687 -49.786,-62.922 -2.718,-0.771 -5.489,-1.161 -8.235,-1.161 -13.3,0 -24.76,9.023 -34.871,16.983 -8.304,6.538 -16.146,12.713 -23.151,12.713 -7.005,0 -14.854,-6.181 -23.166,-12.724 -10.105,-7.957 -21.557,-16.973 -34.852,-16.973 z"
       id="path15" /><path
       d="m 388.589,165.973 c 6.801,-10.421 15.347,-26.083 18.301,-42.551 3.289,-18.335 -0.853,-37.116 -10.807,-49.015 -6.559,-7.84 -15.128,-12.222 -25.5,-13.079 -0.38,5.12 -1.412,10.247 -2.88,15.226 17.667,22.886 24.672,52.901 20.886,89.419 z"
       id="path16" /><path
       d="m 239.917,331.06 c -0.026,-0.023 -4.621,-4.208 -11.113,-3.797 -6.556,0.43 -11.753,6.396 -11.804,6.456 -0.76,0.903 -1.879,1.424 -3.06,1.424 -1.181,0 -2.3,-0.521 -3.06,-1.424 -0.042,-0.049 -5.224,-6.025 -11.804,-6.456 -6.475,-0.41 -11.087,3.774 -11.133,3.817 -1.329,1.235 -3.345,1.442 -4.879,0.473 l -10.969,-6.92 c 4.495,17.706 18.532,26.666 41.844,26.666 23.312,0 37.35,-8.96 41.844,-26.666 l -10.969,6.92 c -1.55,0.979 -3.57,0.775 -4.897,-0.493 z"
       id="path17" /><circle
       cx="382.371"
       cy="192.592"
       r="7.2919998"
       id="circle17" /><path
       d="m 313.014,303.578 c -0.141,-1.64 -1.868,-18.709 -12.643,-23.297 -9.538,-4.063 -23.515,3.789 -28.095,7.158 -1.78,1.309 -4.284,0.927 -5.592,-0.853 -1.308,-1.78 -0.927,-4.284 0.853,-5.592 0.822,-0.605 20.321,-14.737 35.969,-8.073 4.018,1.711 7.117,4.449 9.511,7.594 v -68.471 c -7.873,-19.429 -24.542,-47.861 -37.718,-51.597 -1.059,-0.3 -2.108,-0.446 -3.205,-0.446 -7.251,0 -15.708,6.658 -23.886,13.096 -10.821,8.52 -21.042,16.567 -34.267,16.567 -13.225,0 -23.443,-8.045 -34.262,-16.563 -8.184,-6.442 -16.642,-13.1 -23.893,-13.1 -1.097,0 -2.145,0.146 -3.205,0.446 -13.176,3.736 -29.843,32.167 -37.717,51.596 v 68.471 c 2.393,-3.144 5.492,-5.882 9.511,-7.594 15.647,-6.663 35.147,7.468 35.969,8.073 1.78,1.309 2.162,3.813 0.853,5.592 -1.308,1.779 -3.81,2.162 -5.59,0.854 -0.258,-0.188 -16.691,-12.018 -28.097,-7.159 -10.765,4.584 -12.498,21.625 -12.642,23.298 0.065,17.847 14.657,40.75 40.061,62.865 21.363,18.596 46.732,32.62 59.012,32.62 12.28,0 37.649,-14.023 59.012,-32.62 25.405,-22.114 39.997,-45.018 40.061,-62.865 z m -76.267,-41.849 c 0,0 10.352,-30.149 29.549,-33.102 19.198,-2.953 27.717,21.015 27.717,21.015 -14.691,11.7 -35.001,15.987 -57.266,12.087 z m -14.778,-21.735 c 0.815,-1.688 20.258,-41.327 45.04,-41.327 24.889,0 34.834,22.13 35.245,23.072 0.884,2.025 -0.042,4.382 -2.066,5.266 -2.022,0.884 -4.375,-0.038 -5.262,-2.057 -0.347,-0.781 -8.366,-18.282 -27.917,-18.282 -16.414,0 -32.878,26.571 -37.837,36.81 -0.691,1.426 -2.118,2.258 -3.604,2.258 -0.584,0 -1.178,-0.128 -1.739,-0.4 -1.989,-0.961 -2.821,-3.352 -1.86,-5.34 z m -8.028,11.718 c 1.62,0 3.08,0.977 3.697,2.474 l 15.292,37.051 c 0.59,1.43 0.303,3.072 -0.737,4.216 l -15.292,16.825 c -0.758,0.834 -1.833,1.31 -2.96,1.31 -1.127,0 -2.202,-0.476 -2.96,-1.31 l -15.292,-16.825 c -1.041,-1.145 -1.328,-2.787 -0.737,-4.216 l 15.292,-37.051 c 0.617,-1.498 2.077,-2.474 3.697,-2.474 z m -80.985,-26.761 c -0.895,2.015 -3.251,2.933 -5.271,2.043 -2.017,-0.888 -2.938,-3.235 -2.057,-5.255 0.411,-0.942 10.356,-23.072 35.245,-23.072 24.782,0 44.224,39.639 45.04,41.327 0.961,1.989 0.128,4.379 -1.86,5.341 -0.561,0.271 -1.154,0.4 -1.739,0.4 -1.486,0 -2.913,-0.831 -3.604,-2.258 -4.959,-10.238 -21.423,-36.81 -37.837,-36.81 -19.571,0 -27.586,17.538 -27.917,18.284 z m 0.912,24.691 c 0,0 8.52,-23.969 27.717,-21.015 19.198,2.954 29.549,33.102 29.549,33.102 -22.264,3.9 -42.574,-0.387 -57.266,-12.087 z m 131.258,67.21 c -2.246,27.372 -20.424,42.446 -51.186,42.446 -30.762,0 -48.939,-15.074 -51.186,-42.446 -0.124,-1.511 0.617,-2.962 1.914,-3.748 1.295,-0.785 2.926,-0.771 4.208,0.038 l 16.115,10.167 c 2.893,-1.911 8.059,-4.464 14.608,-4.029 6.22,0.407 11.306,3.748 14.341,6.309 3.036,-2.562 8.121,-5.902 14.341,-6.309 6.547,-0.437 11.715,2.117 14.608,4.028 l 16.115,-10.167 c 1.282,-0.809 2.913,-0.823 4.208,-0.038 1.297,0.787 2.038,2.238 1.914,3.749 z"
       id="path18" /><path
       d="m 420.594,416.85 c -10e-4,0 -0.002,0 -0.004,0 -10e-4,0 -0.003,0 -0.004,0 -4.019,0.002 -7.288,3.272 -7.288,7.291 0,4.021 3.271,7.292 7.292,7.292 4.021,0 7.292,-3.271 7.292,-7.292 0,-4.019 -3.269,-7.289 -7.288,-7.291 z"
       id="path19" /><path
       d="m 396.334,360.07 c -9.654,-7.638 -22.75,-5.125 -35.415,-2.692 -8.423,1.617 -16.38,3.145 -23.492,1.855 -13.015,-2.359 -22.872,-14.622 -27.846,-22.222 -8.357,13.244 -19.561,24.706 -27.474,31.974 5.634,4.762 18.969,14.044 37.303,14.044 11.683,0 20.326,-2.516 28.684,-4.949 10.282,-2.993 19.995,-5.818 33.28,-3.364 13.425,2.482 24.797,12.819 32.423,21.813 -2.813,-12.643 -8.108,-29.057 -17.463,-36.459 z"
       id="path20" /><polygon
       points="203.313,291.947 213.941,303.64 224.569,291.947 213.941,266.196 "
       id="polygon20" /><path
       d="m 118.3,337.012 c -4.974,7.6 -14.831,19.862 -27.846,22.222 -7.113,1.29 -15.068,-0.238 -23.492,-1.855 -12.665,-2.432 -25.761,-4.946 -35.415,2.692 -9.355,7.401 -14.65,23.815 -17.464,36.461 7.626,-8.994 18.998,-19.332 32.423,-21.813 13.286,-2.455 22.999,0.371 33.28,3.364 8.358,2.433 17.001,4.949 28.684,4.949 18.331,0 31.664,-9.279 37.303,-14.045 -7.913,-7.27 -19.116,-18.732 -27.473,-31.975 z"
       id="path21" /><path
       d="m 213.941,407.064 c -7.935,0 -19.488,-4.298 -32.165,-11.542 0.251,4.908 1.164,11.523 4.015,16.363 1.991,3.38 5.45,6.129 9.113,9.04 5.877,4.67 12.539,9.963 14.199,19.163 1.409,7.808 -1.959,16.994 -5.554,24.063 10.167,-5.197 24.707,-14.33 33.098,-27.24 9.704,-14.929 10.426,-32.612 10.014,-41.706 -12.894,7.437 -24.669,11.859 -32.72,11.859 z"
       id="path22" /><path
       d="m 356.549,129.07 c 0,8.432 -6.86,15.292 -15.292,15.292 -8.432,0 -15.292,-6.86 -15.292,-15.292 0,-7.221 5.037,-13.274 11.777,-14.868 1.716,-12.402 1.691,-24.667 -0.097,-36.876 -12.827,16.734 -21.117,44.43 -29.563,76.074 11.631,13.029 20.413,29.786 25.378,40.568 4.966,-12.323 10.885,-23.839 17.689,-34.311 8.396,-12.921 18.091,-24.193 28.814,-33.584 -2.426,-15.271 -7.595,-28.74 -15.484,-40.33 -5.124,12.722 -12.188,23.638 -16.447,29.64 5.039,2.504 8.517,7.691 8.517,13.687 z"
       id="path23" /><path
       d="m 185.228,473.419 c -1.778,0 -3.56,0.645 -4.962,1.947 -1.426,1.326 -2.251,3.128 -2.322,5.075 -0.071,1.946 0.62,3.804 1.946,5.23 1.326,1.427 3.128,2.252 5.074,2.323 1.946,0.078 3.804,-0.62 5.23,-1.946 2.945,-2.737 3.114,-7.36 0.376,-10.305 -1.433,-1.543 -3.386,-2.324 -5.342,-2.324 z"
       id="path24" /><path
       d="m 7.295,416.85 c -0.001,0 -0.003,0 -0.004,0 -0.001,0 -0.002,0 -0.004,0 C 3.269,416.852 0,420.122 0,424.141 c 0,4.021 3.271,7.292 7.292,7.292 4.021,0 7.292,-3.271 7.292,-7.292 -10e-4,-4.019 -3.27,-7.289 -7.289,-7.291 z"
       id="path25" /></g></svg>
