<?xml version="1.0" encoding="UTF-8" standalone="no"?>
<!-- Uploaded to: SVG Repo, www.svgrepo.com, Generator: SVG Repo Mixer Tools -->

<svg
   width="800px"
   height="800px"
   viewBox="0 0 512 512"
   version="1.1"
   xml:space="preserve"
   id="svg1"
   sodipodi:docname="Key.svg"
   inkscape:version="1.3.2 (091e20e, 2023-11-25, custom)"
   xmlns:inkscape="http://www.inkscape.org/namespaces/inkscape"
   xmlns:sodipodi="http://sodipodi.sourceforge.net/DTD/sodipodi-0.dtd"
   xmlns="http://www.w3.org/2000/svg"
   xmlns:svg="http://www.w3.org/2000/svg"><defs
   id="defs1" /><sodipodi:namedview
   id="namedview1"
   pagecolor="#ffffff"
   bordercolor="#666666"
   borderopacity="1.0"
   inkscape:showpageshadow="2"
   inkscape:pageopacity="0.0"
   inkscape:pagecheckerboard="0"
   inkscape:deskcolor="#d1d1d1"
   inkscape:zoom="1.02875"
   inkscape:cx="400"
   inkscape:cy="400"
   inkscape:window-width="1920"
   inkscape:window-height="1009"
   inkscape:window-x="1912"
   inkscape:window-y="-8"
   inkscape:window-maximized="1"
   inkscape:current-layer="svg1" />

<style
   type="text/css"
   id="style1">
	.st0{fill:#333333;}
	.st1{fill:none;stroke:#333333;stroke-width:32;stroke-linecap:round;stroke-linejoin:round;stroke-miterlimit:10;}
</style>

<g
   id="Layer_1" />

<g
   id="Layer_2"
   transform="rotate(90,256.01377,256.00678)"
   style="fill:#000000;fill-opacity:1">

<g
   id="g1"
   style="fill:#000000;fill-opacity:1">

<path
   class="st0"
   d="m 451.38,351.39 v 0 c -12.1,-12.1 -31.71,-12.1 -43.81,0 l -2.17,2.17 -22.94,-22.94 2.17,-2.17 c 12.1,-12.1 12.1,-31.71 0,-43.81 v 0 c -12.1,-12.1 -31.71,-12.1 -43.81,0 l -2.17,2.17 -37.18,-37.18 C 323.95,201.17 315.21,141.8 275.24,101.83 224.11,50.7 139.76,51.1 89.1,102.69 c -50.32,51.23 -50.03,133.55 0.85,184.44 39.97,39.97 99.34,48.71 147.8,26.23 L 363.57,439.2 c 12.1,12.1 31.71,12.1 43.81,0 l 12.79,-12.79 29.03,-29.03 2.17,-2.17 c 12.11,-12.11 12.11,-31.72 0.01,-43.82 z m -228.1,-144.53 -28.32,28.32 c -14.67,14.67 -38.44,14.67 -53.11,0 v 0 c -14.67,-14.67 -14.67,-38.44 0,-53.11 l 28.32,-28.32 c 14.67,-14.67 38.44,-14.67 53.11,0 v 0 c 14.67,14.67 14.67,38.44 0,53.11 z"
   id="path1"
   style="fill:#000000;fill-opacity:1" />

</g>

</g>

</svg>
