<?xml version="1.0" encoding="utf-8"?>

<!DOCTYPE svg PUBLIC "-//W3C//DTD SVG 1.1//EN" "http://www.w3.org/Graphics/SVG/1.1/DTD/svg11.dtd">
<!-- Uploaded to: SVG Repo, www.svgrepo.com, Generator: SVG Repo Mixer Tools -->
<svg height="800px" width="800px" version="1.1" id="_x32_" xmlns="http://www.w3.org/2000/svg" xmlns:xlink="http://www.w3.org/1999/xlink" 
	 viewBox="0 0 512 512"  xml:space="preserve">
<style type="text/css">
	.st0{fill:#000000;}
</style>
<g>
	<polygon class="st0" points="390.422,431.877 390.612,432.093 390.436,431.89 	"/>
	<polygon class="st0" points="387.339,317.889 387.353,317.875 387.298,317.909 	"/>
	<path class="st0" d="M387.366,317.875c0,0,0.014-0.014,0.027-0.014l-0.04,0.014H387.366z"/>
	<path class="st0" d="M401.674,301.43c0,0,0,0.027-0.013,0.034l0.027-0.054C401.688,301.417,401.688,301.423,401.674,301.43z"/>
	<path class="st0" d="M395.683,246.881l0.23,0.237l-0.257-0.271C395.669,246.861,395.683,246.867,395.683,246.881z"/>
	<path class="st0" d="M383.565,264.219c-0.771-1.095-1.677-1.941-3.002-2.684c-1.745-0.98-4.382-1.758-8.317-1.941v-0.007
		c-7.763-0.054-15.133-2.272-22.22-5.632c-7.14-3.415-14.065-7.993-21.057-12.963c-13.956-9.96-28.238-21.503-44.169-28.996
		c-10.616-5.004-21.882-8.236-34.432-8.236c-18.771,0-34.838,7.29-49.85,16.872c-15.011,9.554-28.684,21.327-42.708,29.549
		c-9.291,5.41-18.907,9.332-29.307,9.406v0.007c-2.934,0.142-5.166,0.608-6.829,1.251c-1.664,0.649-2.759,1.426-3.651,2.36
		c-1.758,1.819-2.881,4.788-3.422,9.189c-0.352,2.908-0.446,6.316-0.446,10.056c-0.014,5.477,0.446,9.812,1.595,12.868
		c1.19,3.064,2.732,5.031,6.114,6.938c1.46,0.805,3.353,1.528,5.626,2.164l2.299-0.805c0.176,0.501,0.379,0.988,0.555,1.481
		l1.271,0.271c11.793,2.143,35.013,4.233,58.383,5.741c23.397,1.514,47.158,2.482,60.371,2.482c13.227,0,36.988-0.967,60.385-2.482
		c23.383-1.508,46.59-3.598,58.396-5.741c0.46-0.082,0.825-0.197,1.271-0.285c0.176-0.493,0.379-0.974,0.542-1.467l2.326,0.818
		c4.03-1.122,6.694-2.57,8.426-4.145c2.259-2.063,3.462-4.524,4.22-8.452c0.473-2.59,0.663-5.741,0.663-9.386
		c0-4.206-0.108-8-0.596-11.117C385.54,268.202,384.701,265.848,383.565,264.219z M131.761,290.063c-4.666,0-8.452-3.787-8.452-8.46
		c0-4.679,3.787-8.466,8.452-8.466c4.68,0,8.466,3.786,8.466,8.466C140.227,286.277,136.441,290.063,131.761,290.063z
		 M172.536,296.352c-6.6-0.203-12.888-0.507-18.636-0.913v-29.591c6.451-2.846,12.591-6.504,18.636-10.562V296.352z
		 M216.097,297.217c-5.896-0.047-12.144-0.108-18.582-0.257v-59.594c6.032-4.267,12.186-8.324,18.582-11.779V297.217z
		 M259.699,297.319h-18.636v-80.617c3.056-0.508,6.154-0.758,9.291-0.758c3.205,0,6.302,0.25,9.345,0.758V297.319z M303.259,296.961
		c-6.45,0.149-12.739,0.21-18.636,0.257v-71.63c6.397,3.401,12.591,7.512,18.636,11.779V296.961z M346.82,295.439
		c-5.747,0.406-12.036,0.71-18.582,0.913v-41.066c6.032,4.058,12.186,7.716,18.582,10.562V295.439z M368.987,290.063
		c-4.666,0-8.453-3.787-8.453-8.46c0-4.679,3.787-8.466,8.453-8.466s8.452,3.786,8.452,8.466
		C377.439,286.277,373.652,290.063,368.987,290.063z"/>
	<path class="st0" d="M134.601,490.165l0.514,0.298c-0.027-0.013-0.04-0.02-0.054-0.034L134.601,490.165z"/>
	<path class="st0" d="M189.333,325.401c-20.746-1.352-41.154-3.103-54.461-5.064c5.342,11.637,11.942,22.47,18.609,32.89
		c8.993,14.092,18.135,27.42,24.167,41.356l-9.318,4.024c-2.489-5.782-5.707-11.651-9.318-17.67
		c-0.284,5.937-0.893,12.28-2.015,18.562c-1.65,9.108-4.274,18-8.723,25.114c-0.69,1.095-1.447,2.13-2.232,3.144
		c2.036,2.408,6.316,6.174,12.293,10.17c5.992,4.023,13.714,8.364,22.843,12.354c18.257,7.972,42.114,14.512,69.175,14.512h0.852
		c40.586,0.02,74.017-14.762,92.018-26.866c5.653-3.767,9.71-7.296,11.861-9.717c-0.933-1.136-1.812-2.34-2.61-3.598
		c-2.975-4.74-5.112-10.278-6.708-16.128c-2.435-8.973-3.611-18.724-4.044-27.534c-3.597,6.011-6.816,11.881-9.304,17.656
		l-9.318-4.024c6.031-13.937,15.174-27.264,24.167-41.356c6.667-10.42,13.267-21.253,18.609-32.89
		c-13.294,1.961-33.716,3.719-54.475,5.064c-20.895,1.352-41.924,2.259-55.949,2.448v113.582h-10.157V327.849
		C231.271,327.66,210.241,326.754,189.333,325.401z"/>
	<polygon class="st0" points="146.043,427.758 146.043,427.758 146.043,427.752 	"/>
	<path class="st0" d="M364.551,439.713c-0.582-0.244-1.082-0.588-1.623-0.872c-3.056,3.469-7.709,7.418-14.052,11.679
		c-6.518,4.374-14.754,8.993-24.424,13.226c-19.367,8.446-44.535,15.35-73.247,15.357h-0.852
		c-43.088-0.027-78.128-15.485-97.671-28.583c-6.505-4.376-11.279-8.433-14.322-11.976c-0.704,0.412-1.393,0.844-2.151,1.169
		c-5.869,2.482-10.13,5.389-12.739,8.284c-2.624,2.928-3.665,5.639-3.692,8.568c0,3.245,1.447,7.262,5.355,11.935
		c3.882,4.652,10.144,9.784,18.974,14.951c14.024,8.25,34.635,15.506,54.692,20.563c20.029,5.078,39.707,8,51.567,7.986
		c11.874,0.013,31.538-2.908,51.581-7.986c20.056-5.058,40.666-12.314,54.691-20.563c8.831-5.166,15.093-10.306,18.988-14.951
		c3.895-4.68,5.342-8.69,5.342-11.935c-0.027-2.928-1.068-5.64-3.679-8.568C374.667,445.103,370.407,442.195,364.551,439.713z"/>
	<path class="st0" d="M196.299,96.535c-1.623-1.535-3.462-3.428-5.315-5.504c-1.042,2.204-1.934,5.355-1.921,8.749
		c0,3.023,0.65,6.208,2.408,9.42c1.217,2.204,3.029,4.45,5.599,6.647c14.606-6.836,30.808-10.968,48.226-11.637V20.306h10.157
		v83.903c17.419,0.67,33.621,4.801,48.227,11.637c2.556-2.197,4.382-4.443,5.599-6.647c1.758-3.212,2.407-6.397,2.407-9.42
		c0.027-3.36-0.879-6.518-1.893-8.716c-1.867,2.096-3.719,3.922-5.342,5.471c-2.069,1.968-3.8,3.59-4.49,4.429l-7.804-6.492
		c1.501-1.771,3.286-3.367,5.288-5.281c1.988-1.886,4.125-4.016,6.086-6.39c3.922-4.808,6.951-10.36,6.951-17.203
		c-0.014-4.382-1.285-9.602-4.841-15.803c-1.488,2.813-3.408,5.558-5.829,8.189l-7.506-6.83c5.003-5.545,6.775-10.643,6.802-15.539
		c0-4.233-1.42-8.52-4.125-12.706s-6.681-8.189-11.441-11.624C274.034,4.402,261.376-0.034,250.367,0
		c-8.236-0.014-17.432,2.448-25.52,6.62c-8.088,4.146-15.039,10.014-19.083,16.29c-2.704,4.186-4.125,8.472-4.125,12.706
		c0.014,4.896,1.799,9.994,6.803,15.539l-7.52,6.83c-2.394-2.63-4.341-5.376-5.815-8.189c-3.557,6.201-4.842,11.421-4.842,15.803
		c0,5.159,1.704,9.514,4.219,13.457c2.502,3.928,5.842,7.303,8.818,10.136c1.988,1.914,3.786,3.51,5.287,5.281l-7.803,6.492
		C200.099,100.125,198.367,98.503,196.299,96.535z"/>
	<path class="st0" d="M128.164,245.285h0.108c5.883,0,11.821-1.677,18.082-4.659c6.248-2.969,12.739-7.222,19.528-12.064
		c13.619-9.677,28.346-21.692,45.725-29.909c11.59-5.463,24.438-9.21,38.76-9.21c21.517,0,39.572,8.412,55.327,18.467
		c15.756,10.076,29.496,21.862,42.37,29.34c8.574,5.018,16.594,8.047,24.425,8.034h0.108l0.122,0.007
		c0.77,0.034,1.433,0.176,2.164,0.25c-2.083-31.707-14.795-62.583-35.311-85.884c-21.99-24.966-52.676-41.269-89.205-41.282
		c-36.515,0.013-67.214,16.316-89.204,41.282c-20.488,23.282-33.188,54.143-35.284,85.83c0.717-0.068,1.407-0.162,2.151-0.196
		L128.164,245.285z"/>
	<path class="st0" d="M110.312,427.731l0.027-0.013h-0.014C110.325,427.718,110.325,427.725,110.312,427.731z"/>
</g>
</svg>