<?xml version="1.0" encoding="utf-8"?>
<!-- Uploaded to: SVG Repo, www.svgrepo.com, Generator: SVG Repo Mixer Tools -->
<svg fill="#000000" width="800px" height="800px" viewBox="0 0 32 32" version="1.1" xmlns="http://www.w3.org/2000/svg">
<title>bird-claw</title>
<path d="M26.256 12.016c-0.234-0.35-0.569-0.663-1.019-0.912-0.91-0.503-1.792-0.468-2.518-0.117l0-0.003c-1.967 0.954-3.883 1.407-5.813 1.749-0.499-0.189-0.659-0.563-0.316-1.212 1.18-1.134 2.564-2.049 3.963-2.522 1.138-0.149 2.040-1.066 2.386-2.144 1.462-0.323 3.206-0.193 4.289 0.984-0.705-4.241-3.153-4.71-5.359-4.179-0.074-0.049-0.15-0.096-0.232-0.141-1.912-1.057-3.698 0.26-4.173 1.897-0.368 0.961-0.811 1.868-1.324 2.719-2.184 1.952-4.255 1.186-5.852-0.973-1.233-1.77-2.318-4.081-2.937-6.257h-6.281v4.337c3.526 1.653 8.709 7.788 7.595 9.588-1.244 0.606-2.6 1.117-4.137 1.62-0.172 0.037-0.338 0.091-0.497 0.161-0.012 0.004-0.023 0.007-0.035 0.011l0.003 0.003c-1.339 0.605-2.171 2.282-1.722 3.694-1.209 2.376-1.1 5.505 3.645 6.325-1.373-1.301-1.678-3.007-1.198-4.391 1.454 0.18 2.653-0.9 3.046-2.197 0.518-1.319 1.327-2.504 2.609-2.907 1.385-0.435 5.582 1.236 7.67 4.729 0.194 0.604 0.622 1.159 1.347 1.559 0.711 0.393 1.397 0.465 2.003 0.319 1.172 1.27 2.158 3.197 1.692 5.011 3.374-3.034 2.293-5.762 0.557-7.656 0.142-1.041-0.247-2.134-1.427-2.787-0.584-0.323-1.155-0.423-1.682-0.362-0.976 0.007-2.104-0.174-3.122-0.538-1.388-0.987-1.297-1.93-0.154-2.543 1.709-0.164 3.4 0.379 4.736 1.070 0.124 0.094 0.26 0.183 0.409 0.266 1.62 0.896 3.107 0.128 3.826-1.102 1.354 0.327 2.583 1.561 3.377 3.051 1.392-4.274-0.881-5.916-3.359-6.15z"></path>
</svg>